<svg fill="none" viewBox="0 0 110 143" xmlns="http://www.w3.org/2000/svg" class="LoggedOut_crest__4_fHI LoggedOut_ravenclaw__58DZj"><path d="M76.49 120.09c13.481-15.561 15.593-30.267 13.773-43.024 1.995 2.33 4.14 3.56 6.416 3.663.1.004.2.007.3.007 1.859 0 3.681-.795 5.375-2.298-.543 5.45-1.268 10.004-2.238 12.866-5.506 16.262-14.135 23.132-23.626 28.786zm-21.356 13.87c-5.059-4.635-10.682-7.801-16.143-10.877-7.933-4.468-15.561-8.767-21.665-17.32 6.89 3.829 13.931 5.292 20.506 5.291 10.25 0 19.363-3.527 24.979-7.066 14.344-9.038 20.926-25.307 20.95-40.445a103.55 103.55 0 0 1 1.392 4.312l-.027.014.102.24c4.763 16.188 5.441 35.97-18.631 57.654-3.932 2.32-7.843 4.88-11.464 8.197zM50.315 32.1l3.355 7.517a22.764 22.764 0 0 0-.76-.279c-.306-.105-.61-.207-.897-.338-4.071-1.854-9.945-1.45-13.592-.931l2.775-4.788c1.51-.379 5.704-1.326 9.12-1.181zm10.943 69.219c-9.52 5.999-29.765 11.952-47.62-1.662-1.265-2.48-2.434-5.242-3.487-8.352C7.706 84.086 6.8 66.167 6.505 49.951l10.858-10.013c-1.652 10.574-1.01 19.918 1.919 27.832 3.656 9.872 9.832 14.76 14.37 17.124 9.744 5.075 21.078 3.162 27.56-4.65 9.236-11.137 3.295-24.018.757-29.517-.319-.69-.582-1.26-.75-1.692a26.317 26.317 0 0 0-1.838-3.83l.074-.037-5.02-11.247 2.307 2.339 4.88-5.211-8.418.112-.232-.521 2.657-5.361 14.346 4.029c2.835 6.37 6.574 15.139 7.863 18.174l.229.695c.319.967.677 1.966 1.052 2.983 4.718 16.66-.406 39.16-17.86 50.159zM6.48 22.15c3.435.24 9.226.409 16.01-.341 13.262-1.465 24.48-5.858 32.644-12.754C63.3 15.95 74.517 20.344 87.777 21.809c6.785.75 12.577.581 16.012.341.131 8.763.34 32.968-.982 51.002-1.873 2.94-4.001 4.55-5.997 4.46-2.798-.127-5.758-3.53-8.334-9.58l-.482-1.134c-1.326-4.485-2.928-8.634-4.376-12.38a298.753 298.753 0 0 1-1.666-4.386c-.26-.901-.535-1.792-.847-2.658a62.52 62.52 0 0 0-.472-1.13l-.218-.659-.054.02c-1.589-3.744-5.374-12.585-7.96-18.37l-.295-.66-18.034-5.065-3.652 7.368c-4.669-.186-10.324 1.367-10.578 1.439l-.583.162-6.916 11.935 3.428-.803c.095-.021 9.782-2.245 15.04.149.374.17.761.306 1.154.44.523.18 1.017.351 1.422.618 1.955 1.285 3.701 3.803 5.05 7.283.185.479.476 1.113.829 1.876 2.475 5.369 7.628 16.537-.326 26.126-5.581 6.732-15.429 8.336-23.945 3.9-15.657-8.153-17.429-29.126-13.868-46.035l.986-4.679-15.67 14.449a887.738 887.738 0 0 1 .037-23.689zm103.16-6.969-3.314.461c-.31.042-31.302 4.127-49.164-13.007L55.13.685l-2.034 1.95C35.278 19.727 4.24 15.685 3.934 15.642l-3.315-.46-.08 3.48C.482 21.07-.775 77.839 4.488 93.38c7.27 21.468 19.661 28.446 31.644 35.194 6.128 3.45 11.918 6.71 16.876 11.87l2.12 2.209 2.12-2.208c4.96-5.16 10.749-8.42 16.878-11.871 11.983-6.748 24.374-13.726 31.642-35.194 5.265-15.541 4.008-72.31 3.952-74.72l-.081-3.48z" clip-rule="evenodd" fill="#fff" fill-rule="evenodd"></path></svg>