<svg fill="none" viewBox="0 0 114 143" xmlns="http://www.w3.org/2000/svg" class="LoggedOut_crest__4_fHI LoggedOut_gryffindor__enSt3"><path d="m101.32 87.387-.187-.079c-11.985-5.102-21.511-.595-27.563 4.342 2.964-7.772 3.694-14.767 3.825-16.33.92-1.905 2.182-3.062 3.85-3.537 4.464-1.273 10.275 2.693 10.332 2.732l1.563 1.08 9.203-23.36L73.583 23.5l-22.827 2.67c-.5.08-.994.177-1.487.274-4.416-5.868-10.002-10.693-16.461-13.48L56.858 7.1 107.28 19.39l.489 31.457c0 13.078-2.233 25.39-6.45 36.538zM57.014 54.174c.827 9.033-.16 30.84-26.941 38.79L16.317 68.016c1.08-11.32 6.2-21.352 13.856-28.446l.261.358c6.589 9.032 6.601 18.606.034 26.958l-.956 1.215 2.375 1.956.956-1.216c7.522-9.567 7.534-20.498.033-30.78l-.369-.505c4.532-3.614 9.806-6.261 15.565-7.665 4.827 6.869 8.122 15.332 8.942 24.282zm23.733-18.878c-3.23 2.701-7.248 6.064-6.37 20.853.558 9.432.119 16.913.021 18.361l-.005.011-.015.298c-.006.098-.6 9.836-5.15 19.426-5.872 12.376-15.316 18.7-28.077 18.81L31.607 95.75c19.668-6.13 30.287-21.706 28.441-41.865-.762-8.316-3.881-17.125-8.803-24.63l21.246-2.485 8.423 8.416c-.057.035-.113.067-.166.112zm6.223 16.63c2.917.056 5.321-2.285 5.445-5.25l6.34 6.331-7.073 17.95c-2.397-1.32-7.06-3.373-11.242-2.181-1.03.292-1.96.76-2.795 1.39.096-3.431.118-8.422-.225-14.207-.784-13.195 2.287-15.764 5.256-18.248.145-.122.257-.266.346-.422l9.26 9.252-10.57-.204c-.054 3.03 2.3 5.532 5.259 5.589zm-30.097 83.885C25.295 120.808 6.49 89.154 6.49 50.849V19.384l20.674-5.042c7.078 1.82 13.677 6.477 18.881 12.872-17.899 4.99-31.119 21.21-32.806 41.01l-.041.481 26.168 47.455.875.013c.192.002.377.003.567.003 13.144 0 21.595-6.129 27.02-13.657l.153.1.821-1.31c.032-.049 3.135-4.937 8.559-8.713 7.114-4.954 14.72-5.762 22.604-2.409l.206.088c-8.35 20.032-23.282 36.036-43.296 45.536zM56.86.691.394 14.461v36.393c0 41.34 20.65 75.448 55.238 91.238l1.242.567 1.241-.567c34.908-15.937 55.75-50.044 55.75-91.288l-.565-36.351L56.86.691z" clip-rule="evenodd" fill="#fff" fill-rule="evenodd"></path></svg>