<svg fill="none" viewBox="0 0 108 143" xmlns="http://www.w3.org/2000/svg" class="LoggedOut_crest__4_fHI LoggedOut_hufflepuff__BQ0Dr"><path d="M98.94 85.126a33.298 33.298 0 0 0-4.232-8.477c-3.243-4.707-10.011-11.859-22.391-14.915 6.052-1.613 10.76-5.405 11.322-15.442l.128-2.278-2.07.7c-.08.024-8.381 2.31-27.315-10.208-4.64-3.091-11.968-5.479-19.143-3.385.073-.414.116-.84.116-1.277 0-3.877-3.007-7.031-6.702-7.031s-6.7 3.154-6.7 7.031c0 3.096 1.918 5.725 4.57 6.66-3.124 3.245-5.603 7.701-7.316 13.25a34.95 34.95 0 0 0-1.019 4.176l-.22.567c-6.941 17.903-2.353 27.83.998 35.077 2.949 6.378 4.775 10.365-1.227 17.022-2.875-3.962-5.435-8.856-7.557-15.174-4.12-12.264-4.208-55.425-4.135-68.538 4.843.622 13.636.242 23.94-7.158 7.679-5.515 15.928-8.555 23.862-8.794 7.935.239 16.185 3.279 23.864 8.794 10.304 7.401 19.096 7.78 23.94 7.158.063 11.393.003 45.454-2.714 62.242zM69.443 123.2c-2.401 1.394-4.832 2.812-7.239 4.372 3.827-10.683 2.37-22.637-1.323-29.433-2.858-5.26-8.189-9.555-15.838-12.776-.964-1.794-4.487-8.974-2.443-14.516 1.072-2.906 3.612-4.973 7.546-6.142 2.508-.745 5.22-1.106 7.955-1.345v.026h1.488c19.41 0 28.824 9.455 32.708 15.092 3.232 4.689 4.725 9.555 5.029 13.5C90.85 110.77 80.45 116.813 69.444 123.2zM49.335 61.701c-4.883 1.45-8.083 4.149-9.511 8.02-1.827 4.952-.241 10.611 1.216 14.176-8.55-3.398-14.887-8.633-18.036-14.965-1.502-3.023-2.24-6.27-2.27-9.7.605-6.235 3.068-10.549 7.34-12.806 5.784-3.06 13.06-1.485 16.374.612C62.991 58.76 79.306 50.737 79.99 50.39l.059-.03c-2.174 8.52-9.438 9.01-18.337 9.603-4.13.275-8.4.559-12.377 1.74zM34.838 34.53a17.048 17.048 0 0 1 6.06-1.083c4.56 0 8.866 1.681 11.894 3.7 12.32 8.145 20.488 10.344 25.118 10.777-2.33.955-9.633 3.433-18.908 1.664.407-3.285-1.725-6.347-4.864-6.906-2.467-.44-4.831.797-6.05 2.917a40.859 40.859 0 0 1-2.103-1.236c-4.554-2.878-12.848-4.11-19.251-.725-.856.453-1.76 1.04-2.655 1.787 2.617-5.517 6.22-9.178 10.76-10.894zm-6.185-.776c-2.055 0-3.725-1.754-3.725-3.909s1.67-3.91 3.725-3.91 3.726 1.755 3.726 3.91c0 2.155-1.671 3.909-3.726 3.909zm9.611 89.446c-6.678-3.874-13.134-7.624-18.626-14.166 7.739-8.41 5.075-14.18 2.005-20.821-2.684-5.81-5.904-12.782-3.447-24.238a25.023 25.023 0 0 0 2.168 6.4c3.916 7.877 12.13 14.16 23.13 17.698 7.25 2.975 12.231 6.883 14.801 11.614 3.792 6.977 4.9 20.663-.949 31.32a52.747 52.747 0 0 0-3.49 2.952c-4.934-4.575-10.34-7.712-15.591-10.758zm69.222-108.59-3.933 1.504c-.394.15-9.78 3.58-22.479-5.54C72.426 4.361 63.04.942 53.935.687l-.09-.002-.08.002c-9.105.255-18.49 3.674-27.138 9.885-12.696 9.12-22.087 5.692-22.456 5.55L.19 14.52l-.062 4.47c-.033 2.404-.763 59.015 4.44 74.506 7.214 21.475 19.213 28.435 30.816 35.167 5.907 3.426 11.487 6.663 16.367 11.783l2.104 2.207 2.104-2.207c4.88-5.12 10.458-8.356 16.363-11.782 11.6-6.732 23.595-13.692 30.809-35.168 5.204-15.491 4.474-72.102 4.44-74.505l-.085-4.382z" clip-rule="evenodd" fill="#fff" fill-rule="evenodd"></path></svg>