<svg fill="none" viewBox="0 0 107 141" xmlns="http://www.w3.org/2000/svg" class="LoggedOut_crest__4_fHI LoggedOut_slytherin__aa2Hs"><path d="M96.387 79.5c.55-2.016.886-3.94.978-5.754l2.517-47.968c-7.838-.507-28.495-3.165-46.375-16.997C36.886 23.11 15.127 25.469 6.984 25.837l1.995 48.532c.153 3.432 1.254 7.31 3.225 11.553 1.81-3.448 4.813-6.141 7.058-7.569l36.224-26.83c1.285-.96 1.955-2.004 2.044-3.186.1-1.349-.562-2.664-1.147-3.541l-11.004 8.78-8.43-3.433.031.077-1.399.582c-4.216 1.757-6.583 3.025-6.184 8.647l.11 1.53-3.015.223-.11-1.53c-.126-1.773.016-3.24.335-4.49l-5.295-.07.039-3.07 6.664.09c1.298-1.76 3.128-2.778 4.922-3.577l-4.929-2.008.021-1.061c.064-3.049.237-10.253.495-11.318l.167-.683L55.2 19.848l.728.472c.305.197 7.577 4.932 17.052 13.238l.098.094c4.564 4.79 6.638 10.856 5.842 17.081-.694 5.434-3.576 10.193-7.707 12.728-.624.383-1.444 1.015-2.235 1.627a48.13 48.13 0 0 1-1.58 1.186C53.67 75.918 37.8 88.244 33.478 91.622c5.25 7.196 10.323 4.78 16.342.867L74.828 74.83c5.027-3.084 10.617-3.414 15.42-.96a15.678 15.678 0 0 1 6.138 5.63zm-42.94 53.333c3.664-3.029 12.244-10.372 20.821-19.525 10.307-11.001 17.3-21.05 20.713-29.641-.876-2.879-3.108-5.532-6.089-7.055-2.264-1.158-6.89-2.593-12.42.791L51.5 95.043l-.002.002c-2.634 1.71-6.478 4.208-10.662 4.208-3.49.001-7.22-1.737-10.683-7.113l-.763-1.186 1.1-.868.021-.016c.738-.58 19.36-15.215 35.168-26.32.434-.305.934-.692 1.45-1.09l.021-.017.021-.016c.848-.654 1.724-1.329 2.479-1.793 3.351-2.057 5.696-5.981 6.275-10.496.672-5.259-1.093-10.406-4.971-14.503-7.607-6.663-13.876-11.054-15.934-12.449L31.51 35.53c-.11 1.529-.237 5.303-.32 8.957l13.696 5.577L56.75 40.6l.95.967c.127.13 3.13 3.235 2.848 7.001-.159 2.1-1.259 3.926-3.272 5.431L20.91 80.93c-.299.19-5.514 3.571-6.921 8.517 3.907 7.086 10.044 15.08 18.277 23.733.413.435.825.862 1.24 1.287 4.102 2.167 8.593 2.253 13.823.345 6.272-2.286 24.296-16.29 24.477-16.432l1.2-.934 1.84 2.436-1.2.935c-.756.589-18.585 14.439-25.297 16.886-2.777 1.012-5.422 1.52-7.942 1.52-.78 0-1.548-.051-2.305-.148a253.046 253.046 0 0 0 15.348 13.759zm49.586-113.08h.013l3.209-.02-2.85 54.33c-1.423 28.145-46.198 63.627-48.103 65.124l-1.847 1.45-1.851-1.448c-1.937-1.517-47.455-37.478-48.666-64.556L.679 19.679l3.224.074h.061c1.487 0 29.125.01 47.371-17.229L53.27.696l2.042 1.702c20.624 17.178 46.997 17.354 47.72 17.354zM45.29 33.868l-2.79 8.103-10.068-2.43 12.858-5.673z" clip-rule="evenodd" fill="#fff" fill-rule="evenodd"></path></svg>