<svg width="636" height="70" viewBox="0 0 636 70" fill="none" xmlns="http://www.w3.org/2000/svg">
<path d="M0.000274658 32.5L221.883 32.5" stroke="url(#paint0_linear_2667_12993)"/>
<path d="M635.261 32.5H413.379" stroke="url(#paint1_linear_2667_12993)"/>
<g filter="url(#filter0_d_2667_12993)">
<path d="M221.646 32.5L233.934 17.5H401.228L415.314 32.5L401.228 47.5H233.934L221.646 32.5Z" fill="#231E4E" fill-opacity="0.5" stroke="#5758FF"/>
<path d="M227.657 32L237.442 20.5H398.338L409.309 32L398.338 43.5H237.442L227.657 32Z" fill="#0B163B" stroke="#5758FF"/>
<path d="M271.469 34.3052C271.469 34.7158 271.385 35.1032 271.217 35.4672C271.049 35.8312 270.811 36.1485 270.503 36.4192C270.195 36.6898 269.831 36.8998 269.411 37.0492C268.991 37.2078 268.529 37.2872 268.025 37.2872C267.614 37.2872 267.227 37.2172 266.863 37.0772C266.508 36.9372 266.167 36.7598 265.841 36.5452L265.099 37.2592L264.875 34.0812L265.435 34.7812C265.873 35.3318 266.298 35.7425 266.709 36.0132C267.129 36.2838 267.577 36.4192 268.053 36.4192C268.314 36.4192 268.552 36.3772 268.767 36.2932C268.981 36.1998 269.168 36.0785 269.327 35.9292C269.485 35.7705 269.607 35.5932 269.691 35.3972C269.784 35.1918 269.831 34.9772 269.831 34.7532C269.831 34.5385 269.803 34.3565 269.747 34.2072C269.7 34.0485 269.621 33.9085 269.509 33.7872C269.397 33.6658 269.252 33.5538 269.075 33.4512C268.907 33.3485 268.701 33.2412 268.459 33.1292L267.129 32.5272C266.727 32.3405 266.387 32.1538 266.107 31.9672C265.827 31.7712 265.598 31.5612 265.421 31.3372C265.253 31.1132 265.131 30.8705 265.057 30.6092C264.982 30.3385 264.945 30.0445 264.945 29.7272C264.945 29.3445 265.015 28.9898 265.155 28.6632C265.304 28.3272 265.509 28.0332 265.771 27.7812C266.032 27.5292 266.34 27.3332 266.695 27.1932C267.059 27.0532 267.455 26.9832 267.885 26.9832C268.305 26.9832 268.701 27.0532 269.075 27.1932C269.457 27.3332 269.812 27.5105 270.139 27.7252L270.881 27.0112L271.105 30.1892L270.545 29.4892C270.106 28.9478 269.681 28.5418 269.271 28.2712C268.869 27.9912 268.431 27.8512 267.955 27.8512C267.525 27.8512 267.175 27.9865 266.905 28.2572C266.634 28.5185 266.499 28.8358 266.499 29.2092C266.499 29.5825 266.606 29.9092 266.821 30.1892C267.035 30.4598 267.441 30.7305 268.039 31.0012L269.341 31.6032C269.733 31.7805 270.064 31.9672 270.335 32.1632C270.605 32.3498 270.825 32.5552 270.993 32.7792C271.161 32.9938 271.282 33.2272 271.357 33.4792C271.431 33.7312 271.469 34.0065 271.469 34.3052ZM277.838 37.3012C277.063 37.3012 276.349 37.1752 275.696 36.9232C275.052 36.6618 274.496 36.3025 274.03 35.8452C273.563 35.3785 273.199 34.8325 272.938 34.2072C272.676 33.5725 272.546 32.8865 272.546 32.1492C272.546 31.4398 272.676 30.7725 272.938 30.1472C273.199 29.5218 273.563 28.9758 274.03 28.5092C274.496 28.0425 275.052 27.6738 275.696 27.4032C276.349 27.1325 277.063 26.9972 277.838 26.9972C278.612 26.9972 279.322 27.1278 279.966 27.3892C280.61 27.6505 281.165 28.0098 281.632 28.4672C282.098 28.9245 282.462 29.4658 282.724 30.0912C282.985 30.7165 283.116 31.4025 283.116 32.1492C283.116 32.8585 282.985 33.5258 282.724 34.1512C282.462 34.7765 282.098 35.3225 281.632 35.7892C281.165 36.2558 280.61 36.6245 279.966 36.8952C279.322 37.1658 278.612 37.3012 277.838 37.3012ZM277.894 36.4752C278.37 36.4752 278.804 36.3632 279.196 36.1392C279.597 35.9058 279.942 35.5932 280.232 35.2012C280.521 34.8092 280.745 34.3518 280.904 33.8292C281.072 33.3065 281.156 32.7465 281.156 32.1492C281.156 31.5518 281.072 30.9918 280.904 30.4692C280.736 29.9465 280.498 29.4892 280.19 29.0972C279.891 28.7052 279.532 28.3972 279.112 28.1732C278.701 27.9398 278.248 27.8232 277.754 27.8232C277.278 27.8232 276.839 27.9398 276.438 28.1732C276.036 28.3972 275.691 28.7052 275.402 29.0972C275.112 29.4892 274.884 29.9465 274.716 30.4692C274.557 30.9918 274.478 31.5518 274.478 32.1492C274.478 32.7465 274.562 33.3065 274.73 33.8292C274.898 34.3518 275.131 34.8092 275.43 35.2012C275.738 35.5932 276.097 35.9058 276.508 36.1392C276.928 36.3632 277.39 36.4752 277.894 36.4752ZM284.385 27.9352L283.685 27.2352H287.815C288.31 27.2352 288.762 27.3052 289.173 27.4452C289.584 27.5852 289.938 27.7765 290.237 28.0192C290.545 28.2618 290.783 28.5512 290.951 28.8872C291.119 29.2138 291.203 29.5732 291.203 29.9652C291.203 30.5812 290.998 31.1225 290.587 31.5892C290.186 32.0465 289.649 32.3638 288.977 32.5412L289.579 32.7512L292.127 36.4052L292.645 37.0352H289.481L290.111 36.4052L287.493 32.6952H286.219V36.3352L286.919 37.0352H283.685L284.385 36.3352V27.9352ZM286.219 28.0612V31.8832H287.535C287.806 31.8832 288.053 31.8365 288.277 31.7432C288.501 31.6405 288.688 31.5005 288.837 31.3232C288.996 31.1458 289.117 30.9405 289.201 30.7072C289.285 30.4738 289.327 30.2265 289.327 29.9652C289.327 29.7038 289.285 29.4565 289.201 29.2232C289.117 28.9898 288.996 28.7892 288.837 28.6212C288.688 28.4438 288.501 28.3085 288.277 28.2152C288.053 28.1125 287.806 28.0612 287.535 28.0612H286.219ZM292.654 27.2352H301.488L301.628 29.6712L300.438 28.1172H297.988V36.3352L298.688 37.0352H295.454L296.154 36.3352V28.1172H293.704L292.514 29.6712L292.654 27.2352ZM302.883 27.9352L302.183 27.2352H308.847L309.057 29.8112L307.727 28.1172H304.717V31.5752H306.509L307.475 30.7072V33.3112L306.509 32.4012H304.717V35.6072L304.199 36.1532H308.147L309.337 34.5992L309.197 37.0352H302.183L302.883 36.3352V27.9352ZM310.717 27.9352L310.017 27.2352H314.287C315.062 27.2352 315.776 27.3612 316.429 27.6132C317.082 27.8558 317.647 28.1965 318.123 28.6352C318.599 29.0645 318.968 29.5778 319.229 30.1752C319.5 30.7725 319.635 31.4258 319.635 32.1352C319.635 32.8445 319.5 33.4978 319.229 34.0952C318.968 34.6925 318.599 35.2105 318.123 35.6492C317.647 36.0785 317.082 36.4192 316.429 36.6712C315.776 36.9138 315.062 37.0352 314.287 37.0352H310.017L310.717 36.3352V27.9352ZM312.033 36.2232H314.007C314.53 36.2232 315.015 36.1158 315.463 35.9012C315.92 35.6865 316.312 35.3972 316.639 35.0332C316.966 34.6598 317.222 34.2258 317.409 33.7312C317.596 33.2272 317.689 32.6952 317.689 32.1352C317.689 31.5752 317.596 31.0478 317.409 30.5532C317.222 30.0585 316.966 29.6292 316.639 29.2652C316.312 28.8918 315.92 28.5978 315.463 28.3832C315.015 28.1685 314.53 28.0612 314.007 28.0612H312.551V35.6772L312.033 36.2232ZM323.279 27.2352H332.113L332.253 29.6712L331.063 28.1172H328.613V36.3352L329.313 37.0352H326.079L326.779 36.3352V28.1172H324.329L323.139 29.6712L323.279 27.2352ZM337.967 37.3012C337.192 37.3012 336.478 37.1752 335.825 36.9232C335.181 36.6618 334.625 36.3025 334.159 35.8452C333.692 35.3785 333.328 34.8325 333.067 34.2072C332.805 33.5725 332.675 32.8865 332.675 32.1492C332.675 31.4398 332.805 30.7725 333.067 30.1472C333.328 29.5218 333.692 28.9758 334.159 28.5092C334.625 28.0425 335.181 27.6738 335.825 27.4032C336.478 27.1325 337.192 26.9972 337.967 26.9972C338.741 26.9972 339.451 27.1278 340.095 27.3892C340.739 27.6505 341.294 28.0098 341.761 28.4672C342.227 28.9245 342.591 29.4658 342.853 30.0912C343.114 30.7165 343.245 31.4025 343.245 32.1492C343.245 32.8585 343.114 33.5258 342.853 34.1512C342.591 34.7765 342.227 35.3225 341.761 35.7892C341.294 36.2558 340.739 36.6245 340.095 36.8952C339.451 37.1658 338.741 37.3012 337.967 37.3012ZM338.023 36.4752C338.499 36.4752 338.933 36.3632 339.325 36.1392C339.726 35.9058 340.071 35.5932 340.361 35.2012C340.65 34.8092 340.874 34.3518 341.033 33.8292C341.201 33.3065 341.285 32.7465 341.285 32.1492C341.285 31.5518 341.201 30.9918 341.033 30.4692C340.865 29.9465 340.627 29.4892 340.319 29.0972C340.02 28.7052 339.661 28.3972 339.241 28.1732C338.83 27.9398 338.377 27.8232 337.883 27.8232C337.407 27.8232 336.968 27.9398 336.567 28.1732C336.165 28.3972 335.82 28.7052 335.531 29.0972C335.241 29.4892 335.013 29.9465 334.845 30.4692C334.686 30.9918 334.607 31.5518 334.607 32.1492C334.607 32.7465 334.691 33.3065 334.859 33.8292C335.027 34.3518 335.26 34.8092 335.559 35.2012C335.867 35.5932 336.226 35.9058 336.637 36.1392C337.057 36.3632 337.519 36.4752 338.023 36.4752ZM344.514 27.9352L343.814 27.2352H348.084C348.859 27.2352 349.573 27.3612 350.226 27.6132C350.879 27.8558 351.444 28.1965 351.92 28.6352C352.396 29.0645 352.765 29.5778 353.026 30.1752C353.297 30.7725 353.432 31.4258 353.432 32.1352C353.432 32.8445 353.297 33.4978 353.026 34.0952C352.765 34.6925 352.396 35.2105 351.92 35.6492C351.444 36.0785 350.879 36.4192 350.226 36.6712C349.573 36.9138 348.859 37.0352 348.084 37.0352H343.814L344.514 36.3352V27.9352ZM345.83 36.2232H347.804C348.327 36.2232 348.812 36.1158 349.26 35.9012C349.717 35.6865 350.109 35.3972 350.436 35.0332C350.763 34.6598 351.019 34.2258 351.206 33.7312C351.393 33.2272 351.486 32.6952 351.486 32.1352C351.486 31.5752 351.393 31.0478 351.206 30.5532C351.019 30.0585 350.763 29.6292 350.436 29.2652C350.109 28.8918 349.717 28.5978 349.26 28.3832C348.812 28.1685 348.327 28.0612 347.804 28.0612H346.348V35.6772L345.83 36.2232ZM354.948 33.8992L354.248 33.0872H355.284L357.468 27.8652L356.81 27.2352H359.988L359.344 27.8652L362.83 36.4052L363.446 37.0352H360.212L360.856 36.4052L360.086 34.3752L360.52 33.8992H356.04L355.06 36.3212L355.746 37.0352H353.226L353.898 36.4052L354.948 33.8992ZM359.582 33.0872L357.972 29.0832L356.362 33.0872H359.582ZM368.214 37.0352H364.98L365.68 36.3352V33.0732L362.25 27.8652L361.634 27.2352H364.966L364.322 27.8652L367.024 32.1912L369.768 27.9492L369.082 27.2352H371.574L370.902 27.8652L367.514 33.0592V36.3352L368.214 37.0352Z" fill="white"/>
</g>
<defs>
<filter id="filter0_d_2667_12993" x="202.434" y="0.909134" width="232.133" height="68.1328" filterUnits="userSpaceOnUse" color-interpolation-filters="sRGB">
<feFlood flood-opacity="0" result="BackgroundImageFix"/>
<feColorMatrix in="SourceAlpha" type="matrix" values="0 0 0 0 0 0 0 0 0 0 0 0 0 0 0 0 0 0 127 0" result="hardAlpha"/>
<feOffset dy="2.47552"/>
<feGaussianBlur stdDeviation="9.28319"/>
<feComposite in2="hardAlpha" operator="out"/>
<feColorMatrix type="matrix" values="0 0 0 0 0 0 0 0 0 0 0 0 0 0 0 0 0 0 0.3 0"/>
<feBlend mode="normal" in2="BackgroundImageFix" result="effect1_dropShadow_2667_12993"/>
<feBlend mode="normal" in="SourceGraphic" in2="effect1_dropShadow_2667_12993" result="shape"/>
</filter>
<linearGradient id="paint0_linear_2667_12993" x1="221.883" y1="31.0168" x2="0.000234983" y2="31.0168" gradientUnits="userSpaceOnUse">
<stop stop-color="#5657FF"/>
<stop offset="0.447921" stop-color="#5657FF"/>
<stop offset="1" stop-color="#5657FF" stop-opacity="0"/>
</linearGradient>
<linearGradient id="paint1_linear_2667_12993" x1="413.379" y1="33.9832" x2="635.261" y2="33.9832" gradientUnits="userSpaceOnUse">
<stop stop-color="#5657FF"/>
<stop offset="0.447921" stop-color="#5657FF"/>
<stop offset="1" stop-color="#5657FF" stop-opacity="0"/>
</linearGradient>
</defs>
</svg>
